<?xml version="1.0" standalone="no"?>
<!DOCTYPE svg PUBLIC "-//W3C//DTD SVG 20010904//EN"
 "http://www.w3.org/TR/2001/REC-SVG-20010904/DTD/svg10.dtd">
<svg version="1.0" xmlns="http://www.w3.org/2000/svg"
 width="300.000000pt" height="300.000000pt" viewBox="0 0 300.000000 300.000000"
 preserveAspectRatio="xMidYMid meet">
<metadata>
Created by potrace 1.11, written by Peter Selinger 2001-2013
</metadata>
<g transform="translate(0.000000,300.000000) scale(0.100000,-0.100000)"
fill="#000000" stroke="none">
<path d="M1335 2984 c-163 -25 -386 -86 -422 -116 -17 -14 -18 -159 -1 -204
11 -31 5 -50 -85 -286 -54 -139 -105 -287 -114 -328 -25 -114 -22 -380 6 -534
22 -122 20 -135 -16 -136 -13 0 -17 11 -32 90 -77 402 -74 710 10 971 21 68
130 295 174 367 14 23 24 42 20 42 -3 0 -33 -14 -67 -31 -256 -129 -496 -371
-631 -636 -110 -216 -155 -387 -164 -623 -6 -176 4 -283 44 -435 59 -228 158
-417 314 -601 303 -358 789 -556 1257 -514 355 32 675 179 925 426 304 300
463 705 444 1128 -18 382 -166 716 -436 987 -213 212 -461 347 -756 411 -88
19 -394 33 -470 22z m49 -90 c24 -9 19 -29 -9 -42 -13 -6 -32 -26 -41 -44
l-17 -33 37 33 c40 35 51 37 93 21 27 -11 27 -11 7 -19 -43 -17 -33 -27 11
-12 55 20 95 9 109 -31 8 -21 6 -31 -7 -44 -15 -15 -19 -15 -50 2 -49 26 -81
14 -117 -42 -17 -26 -30 -54 -30 -62 1 -13 2 -13 11 2 14 24 55 21 105 -8 54
-31 91 -104 100 -194 l7 -63 -24 7 c-13 4 -24 8 -25 9 -21 37 -50 66 -75 76
-27 12 -36 11 -73 -8 l-43 -20 -90 43 c-50 23 -93 47 -97 53 -15 25 63 99 122
117 18 5 22 2 22 -14 0 -12 5 -21 10 -21 18 0 10 36 -20 93 -16 31 -30 70 -30
87 0 42 25 86 58 104 31 17 35 18 56 10z m-167 -418 c32 -19 77 -42 101 -51
38 -16 42 -20 42 -52 0 -80 112 -127 159 -67 12 15 21 33 21 41 0 10 6 13 16
9 9 -3 20 -6 26 -6 19 0 -3 -65 -60 -175 l-57 -110 2 -167 c1 -156 3 -171 27
-223 14 -30 27 -55 30 -55 3 0 0 11 -6 25 -7 16 -8 29 -2 34 18 17 140 60 201
71 105 18 310 -23 441 -89 l55 -28 -84 -6 c-46 -3 -108 -13 -137 -22 -64 -19
-146 -54 -141 -59 2 -3 42 7 89 21 71 20 101 24 186 21 93 -3 107 -6 178 -41
86 -43 115 -77 141 -165 9 -29 23 -56 31 -59 15 -6 70 25 60 34 -3 3 -12 0
-21 -7 -26 -21 -42 -4 -54 58 -14 70 -63 134 -137 177 l-45 26 59 64 c93 98
152 218 168 336 4 27 10 49 15 49 18 0 74 -179 94 -305 24 -146 13 -424 -17
-462 -16 -20 -40 -16 -35 5 15 52 18 76 9 67 -13 -14 -93 -198 -88 -203 2 -2
18 17 35 41 24 36 105 97 127 97 15 0 -3 -54 -43 -123 -132 -231 -298 -388
-472 -447 -246 -82 -486 15 -597 242 -20 40 -33 60 -30 43 13 -62 68 -154 122
-209 146 -146 384 -186 567 -95 71 35 114 65 176 123 28 26 39 33 32 19 -22
-43 -133 -174 -169 -201 -20 -14 -48 -49 -62 -76 -21 -41 -36 -56 -80 -79 -50
-26 -62 -29 -135 -25 -105 6 -171 35 -230 101 -46 50 -51 38 -9 -20 13 -17 24
-33 24 -35 0 -2 -38 0 -84 4 -99 10 -205 43 -284 90 -60 35 -181 148 -201 187
-15 26 -12 26 49 -17 23 -16 19 -11 -10 13 -25 21 -73 66 -106 100 -75 75 -88
120 -79 260 9 118 25 182 88 345 l52 135 0 250 c-1 240 -2 255 -29 365 -29
119 -29 159 -1 226 8 19 16 34 19 34 2 0 31 -15 63 -34z m-387 -1095 c0 -4
-30 -26 -67 -47 -94 -55 -196 -153 -230 -222 -50 -103 -32 -215 50 -309 59
-67 161 -96 257 -74 24 5 46 8 49 5 8 -8 -44 -56 -82 -76 -95 -48 -210 -29
-296 48 -81 73 -96 109 -96 234 0 99 2 109 34 173 48 99 121 167 245 228 97
47 136 59 136 40z m-52 -119 c3 -25 -1 -32 -15 -32 -10 0 -28 -3 -40 -6 -35
-10 -31 36 5 58 35 23 46 18 50 -20z m89 -40 c-20 -32 -55 -80 -78 -106 -50
-57 -45 -68 41 -74 33 -2 60 -8 60 -12 0 -4 -11 -19 -24 -33 -24 -26 -81 -47
-128 -47 -19 0 -28 -5 -28 -16 0 -20 46 -84 77 -108 22 -16 22 -14 -6 24 -40
56 -41 80 -2 80 16 0 36 2 44 6 11 4 18 -15 32 -85 9 -49 14 -94 10 -100 -3
-6 -26 -11 -51 -11 -37 0 -44 3 -44 19 0 11 6 21 12 23 7 3 -8 10 -34 16 -54
14 -101 62 -117 119 -16 57 -13 177 5 221 14 38 17 40 70 45 59 6 123 38 163
81 38 40 37 23 -2 -42z m138 -89 c0 -145 7 -166 80 -243 49 -52 65 -84 37 -76
-19 6 -238 56 -245 56 -3 0 -8 16 -11 35 -6 30 -3 39 26 68 41 41 62 81 55
101 -5 13 -17 15 -60 10 -72 -8 -78 8 -34 83 30 53 36 57 92 74 33 9 60 17 60
18 0 0 0 -56 0 -126z m-325 97 c0 -5 -7 -10 -16 -10 -8 0 -12 5 -9 10 3 6 10
10 16 10 5 0 9 -4 9 -10z m-80 -82 c-22 -49 -24 -95 -9 -188 13 -81 46 -132
105 -161 24 -11 44 -22 44 -24 0 -2 3 -10 6 -19 20 -51 -123 17 -166 79 -77
111 -75 214 7 323 32 43 36 40 13 -10z m1050 -897 c-33 -51 -37 -51 -15 3 20
46 15 46 -111 1 -53 -19 -99 -34 -101 -32 -4 4 109 57 121 57 4 0 23 8 44 17
l37 17 -50 6 c-48 7 -47 7 23 8 l73 2 -7 64 c-4 36 -3 73 2 83 6 12 10 -15 12
-81 3 -95 2 -100 -28 -145z m356 138 c-27 -32 -30 -55 -20 -146 5 -34 11 -50
19 -47 6 3 22 -3 35 -14 21 -17 21 -19 5 -35 -31 -32 -145 -18 -145 18 0 16
36 39 49 31 4 -3 11 18 15 47 11 95 8 112 -26 148 l-33 34 60 5 c33 3 62 2 63
-3 2 -4 -8 -21 -22 -38z"/>
<path d="M1189 2393 c-11 -28 -5 -69 13 -90 17 -21 28 -4 28 42 0 75 -21 100
-41 48z"/>
<path d="M1260 2245 c0 -17 39 -217 49 -250 6 -16 15 -49 21 -72 6 -24 14 -43
19 -43 4 0 14 40 20 89 16 118 28 281 20 281 -9 0 -39 -190 -40 -257 l-1 -58
-10 45 c-30 143 -77 302 -78 265z"/>
</g>
</svg>
